<mxfile host="app.diagrams.net" modified="2020-09-27T02:50:58.482Z" agent="5.0 (Windows NT 10.0; WOW64) AppleWebKit/537.36 (KHTML, like Gecko) Chrome/78.0.3904.108 Safari/537.36" etag="9ET7wsS-SEIit72z77bb" version="13.7.5" type="github">
  <diagram id="CvsDH0a3pbj6ZaCls3v0" name="第 1 页">
    <mxGraphModel dx="597" dy="684" grid="1" gridSize="10" guides="1" tooltips="1" connect="1" arrows="1" fold="1" page="1" pageScale="1" pageWidth="827" pageHeight="1169" math="0" shadow="0">
      <root>
        <mxCell id="0" />
        <mxCell id="1" parent="0" />
        <mxCell id="jhDI7tPvVPbU7EoArzrp-2" value="订单" style="shape=table;startSize=40;container=1;collapsible=1;childLayout=tableLayout;fixedRows=1;rowLines=0;fontStyle=1;align=center;resizeLast=1;fillColor=#dae8fc;strokeColor=#6c8ebf;" vertex="1" parent="1">
          <mxGeometry x="1310" y="740" width="200" height="230" as="geometry" />
        </mxCell>
        <mxCell id="jhDI7tPvVPbU7EoArzrp-3" value="" style="shape=partialRectangle;collapsible=0;dropTarget=0;pointerEvents=0;top=0;left=0;bottom=1;right=0;points=[[0,0.5],[1,0.5]];portConstraint=eastwest;fillColor=#CCFFCC;" vertex="1" parent="jhDI7tPvVPbU7EoArzrp-2">
          <mxGeometry y="40" width="200" height="30" as="geometry" />
        </mxCell>
        <mxCell id="jhDI7tPvVPbU7EoArzrp-4" value="PK" style="shape=partialRectangle;connectable=0;top=0;left=0;bottom=0;right=0;fontStyle=1;overflow=hidden;fillColor=#CCFFCC;" vertex="1" parent="jhDI7tPvVPbU7EoArzrp-3">
          <mxGeometry width="30" height="30" as="geometry" />
        </mxCell>
        <mxCell id="jhDI7tPvVPbU7EoArzrp-5" value="订单ID" style="shape=partialRectangle;connectable=0;top=0;left=0;bottom=0;right=0;align=left;spacingLeft=6;fontStyle=5;overflow=hidden;fillColor=#CCFFCC;" vertex="1" parent="jhDI7tPvVPbU7EoArzrp-3">
          <mxGeometry x="30" width="170" height="30" as="geometry" />
        </mxCell>
        <mxCell id="jhDI7tPvVPbU7EoArzrp-6" value="" style="shape=partialRectangle;collapsible=0;dropTarget=0;pointerEvents=0;top=0;left=0;bottom=0;right=0;points=[[0,0.5],[1,0.5]];portConstraint=eastwest;fillColor=#CCFFCC;" vertex="1" parent="jhDI7tPvVPbU7EoArzrp-2">
          <mxGeometry y="70" width="200" height="40" as="geometry" />
        </mxCell>
        <mxCell id="jhDI7tPvVPbU7EoArzrp-7" value="" style="shape=partialRectangle;connectable=0;top=0;left=0;bottom=0;right=0;editable=1;overflow=hidden;fillColor=#CCFFCC;" vertex="1" parent="jhDI7tPvVPbU7EoArzrp-6">
          <mxGeometry width="30" height="40" as="geometry" />
        </mxCell>
        <mxCell id="jhDI7tPvVPbU7EoArzrp-8" value="订单编号" style="shape=partialRectangle;connectable=0;top=0;left=0;bottom=0;right=0;align=left;spacingLeft=6;overflow=hidden;fillColor=#CCFFCC;" vertex="1" parent="jhDI7tPvVPbU7EoArzrp-6">
          <mxGeometry x="30" width="170" height="40" as="geometry" />
        </mxCell>
        <mxCell id="jhDI7tPvVPbU7EoArzrp-113" value="" style="shape=partialRectangle;collapsible=0;dropTarget=0;pointerEvents=0;top=0;left=0;bottom=0;right=0;points=[[0,0.5],[1,0.5]];portConstraint=eastwest;fillColor=#CCFFCC;" vertex="1" parent="jhDI7tPvVPbU7EoArzrp-2">
          <mxGeometry y="110" width="200" height="30" as="geometry" />
        </mxCell>
        <mxCell id="jhDI7tPvVPbU7EoArzrp-114" value="" style="shape=partialRectangle;connectable=0;top=0;left=0;bottom=0;right=0;editable=1;overflow=hidden;fillColor=#CCFFCC;" vertex="1" parent="jhDI7tPvVPbU7EoArzrp-113">
          <mxGeometry width="30" height="30" as="geometry" />
        </mxCell>
        <mxCell id="jhDI7tPvVPbU7EoArzrp-115" value="用户" style="shape=partialRectangle;connectable=0;top=0;left=0;bottom=0;right=0;align=left;spacingLeft=6;overflow=hidden;fillColor=#CCFFCC;" vertex="1" parent="jhDI7tPvVPbU7EoArzrp-113">
          <mxGeometry x="30" width="170" height="30" as="geometry" />
        </mxCell>
        <mxCell id="jhDI7tPvVPbU7EoArzrp-9" value="" style="shape=partialRectangle;collapsible=0;dropTarget=0;pointerEvents=0;fillColor=none;top=0;left=0;bottom=0;right=0;points=[[0,0.5],[1,0.5]];portConstraint=eastwest;strokeWidth=1;align=left;" vertex="1" parent="jhDI7tPvVPbU7EoArzrp-2">
          <mxGeometry y="140" width="200" height="30" as="geometry" />
        </mxCell>
        <mxCell id="jhDI7tPvVPbU7EoArzrp-10" value="" style="shape=partialRectangle;connectable=0;top=0;left=0;bottom=0;right=0;editable=1;overflow=hidden;fillColor=#CCFFCC;" vertex="1" parent="jhDI7tPvVPbU7EoArzrp-9">
          <mxGeometry width="30" height="30" as="geometry" />
        </mxCell>
        <mxCell id="jhDI7tPvVPbU7EoArzrp-11" value="订单状态" style="shape=partialRectangle;connectable=0;top=0;left=0;bottom=0;right=0;align=left;spacingLeft=6;overflow=hidden;strokeColor=#82b366;fillColor=#CCFFCC;" vertex="1" parent="jhDI7tPvVPbU7EoArzrp-9">
          <mxGeometry x="30" width="170" height="30" as="geometry" />
        </mxCell>
        <mxCell id="jhDI7tPvVPbU7EoArzrp-12" value="" style="shape=partialRectangle;collapsible=0;dropTarget=0;pointerEvents=0;top=0;left=0;bottom=0;right=0;points=[[0,0.5],[1,0.5]];portConstraint=eastwest;fillColor=#CCFFCC;" vertex="1" parent="jhDI7tPvVPbU7EoArzrp-2">
          <mxGeometry y="170" width="200" height="30" as="geometry" />
        </mxCell>
        <mxCell id="jhDI7tPvVPbU7EoArzrp-13" value="" style="shape=partialRectangle;connectable=0;top=0;left=0;bottom=0;right=0;editable=1;overflow=hidden;fillColor=#CCFFCC;" vertex="1" parent="jhDI7tPvVPbU7EoArzrp-12">
          <mxGeometry width="30" height="30" as="geometry" />
        </mxCell>
        <mxCell id="jhDI7tPvVPbU7EoArzrp-14" value="付款时间" style="shape=partialRectangle;connectable=0;top=0;left=0;bottom=0;right=0;align=left;spacingLeft=6;overflow=hidden;fillColor=#CCFFCC;" vertex="1" parent="jhDI7tPvVPbU7EoArzrp-12">
          <mxGeometry x="30" width="170" height="30" as="geometry" />
        </mxCell>
        <mxCell id="jhDI7tPvVPbU7EoArzrp-15" value="" style="shape=partialRectangle;collapsible=0;dropTarget=0;pointerEvents=0;top=0;left=0;bottom=0;right=0;points=[[0,0.5],[1,0.5]];portConstraint=eastwest;fillColor=#CCFFCC;" vertex="1" parent="jhDI7tPvVPbU7EoArzrp-2">
          <mxGeometry y="200" width="200" height="30" as="geometry" />
        </mxCell>
        <mxCell id="jhDI7tPvVPbU7EoArzrp-16" value="" style="shape=partialRectangle;connectable=0;top=0;left=0;bottom=0;right=0;editable=1;overflow=hidden;fillColor=#CCFFCC;" vertex="1" parent="jhDI7tPvVPbU7EoArzrp-15">
          <mxGeometry width="30" height="30" as="geometry" />
        </mxCell>
        <mxCell id="jhDI7tPvVPbU7EoArzrp-17" value="创建时间" style="shape=partialRectangle;connectable=0;top=0;left=0;bottom=0;right=0;align=left;spacingLeft=6;overflow=hidden;fillColor=#CCFFCC;" vertex="1" parent="jhDI7tPvVPbU7EoArzrp-15">
          <mxGeometry x="30" width="170" height="30" as="geometry" />
        </mxCell>
        <mxCell id="jhDI7tPvVPbU7EoArzrp-18" value="订单明细" style="shape=table;startSize=50;container=1;collapsible=1;childLayout=tableLayout;fixedRows=1;rowLines=0;fontStyle=1;align=center;resizeLast=1;fillColor=#dae8fc;strokeColor=#6c8ebf;" vertex="1" parent="1">
          <mxGeometry x="1700" y="730" width="180" height="210" as="geometry" />
        </mxCell>
        <mxCell id="jhDI7tPvVPbU7EoArzrp-19" value="" style="shape=partialRectangle;collapsible=0;dropTarget=0;pointerEvents=0;top=0;left=0;bottom=1;right=0;points=[[0,0.5],[1,0.5]];portConstraint=eastwest;fillColor=#CCFFCC;" vertex="1" parent="jhDI7tPvVPbU7EoArzrp-18">
          <mxGeometry y="50" width="180" height="30" as="geometry" />
        </mxCell>
        <mxCell id="jhDI7tPvVPbU7EoArzrp-20" value="PK" style="shape=partialRectangle;connectable=0;top=0;left=0;bottom=0;right=0;fontStyle=1;overflow=hidden;fillColor=#CCFFCC;" vertex="1" parent="jhDI7tPvVPbU7EoArzrp-19">
          <mxGeometry width="30" height="30" as="geometry" />
        </mxCell>
        <mxCell id="jhDI7tPvVPbU7EoArzrp-21" value="订单明细ID" style="shape=partialRectangle;connectable=0;top=0;left=0;bottom=0;right=0;align=left;spacingLeft=6;fontStyle=5;overflow=hidden;fillColor=#CCFFCC;" vertex="1" parent="jhDI7tPvVPbU7EoArzrp-19">
          <mxGeometry x="30" width="150" height="30" as="geometry" />
        </mxCell>
        <mxCell id="jhDI7tPvVPbU7EoArzrp-25" value="" style="shape=partialRectangle;collapsible=0;dropTarget=0;pointerEvents=0;fillColor=none;top=0;left=0;bottom=0;right=0;points=[[0,0.5],[1,0.5]];portConstraint=eastwest;strokeWidth=1;align=left;" vertex="1" parent="jhDI7tPvVPbU7EoArzrp-18">
          <mxGeometry y="80" width="180" height="30" as="geometry" />
        </mxCell>
        <mxCell id="jhDI7tPvVPbU7EoArzrp-26" value="" style="shape=partialRectangle;connectable=0;top=0;left=0;bottom=0;right=0;editable=1;overflow=hidden;fillColor=#CCFFCC;" vertex="1" parent="jhDI7tPvVPbU7EoArzrp-25">
          <mxGeometry width="30" height="30" as="geometry" />
        </mxCell>
        <mxCell id="jhDI7tPvVPbU7EoArzrp-27" value="订单ID" style="shape=partialRectangle;connectable=0;top=0;left=0;bottom=0;right=0;align=left;spacingLeft=6;overflow=hidden;strokeColor=#82b366;fillColor=#CCFFCC;" vertex="1" parent="jhDI7tPvVPbU7EoArzrp-25">
          <mxGeometry x="30" width="150" height="30" as="geometry" />
        </mxCell>
        <mxCell id="jhDI7tPvVPbU7EoArzrp-22" value="" style="shape=partialRectangle;collapsible=0;dropTarget=0;pointerEvents=0;top=0;left=0;bottom=0;right=0;points=[[0,0.5],[1,0.5]];portConstraint=eastwest;fillColor=#CCFFCC;" vertex="1" parent="jhDI7tPvVPbU7EoArzrp-18">
          <mxGeometry y="110" width="180" height="40" as="geometry" />
        </mxCell>
        <mxCell id="jhDI7tPvVPbU7EoArzrp-23" value="" style="shape=partialRectangle;connectable=0;top=0;left=0;bottom=0;right=0;editable=1;overflow=hidden;fillColor=#CCFFCC;" vertex="1" parent="jhDI7tPvVPbU7EoArzrp-22">
          <mxGeometry width="30" height="40" as="geometry" />
        </mxCell>
        <mxCell id="jhDI7tPvVPbU7EoArzrp-24" value="商品" style="shape=partialRectangle;connectable=0;top=0;left=0;bottom=0;right=0;align=left;spacingLeft=6;overflow=hidden;fillColor=#CCFFCC;" vertex="1" parent="jhDI7tPvVPbU7EoArzrp-22">
          <mxGeometry x="30" width="150" height="40" as="geometry" />
        </mxCell>
        <mxCell id="jhDI7tPvVPbU7EoArzrp-28" value="" style="shape=partialRectangle;collapsible=0;dropTarget=0;pointerEvents=0;top=0;left=0;bottom=0;right=0;points=[[0,0.5],[1,0.5]];portConstraint=eastwest;fillColor=#CCFFCC;" vertex="1" parent="jhDI7tPvVPbU7EoArzrp-18">
          <mxGeometry y="150" width="180" height="30" as="geometry" />
        </mxCell>
        <mxCell id="jhDI7tPvVPbU7EoArzrp-29" value="" style="shape=partialRectangle;connectable=0;top=0;left=0;bottom=0;right=0;editable=1;overflow=hidden;fillColor=#CCFFCC;" vertex="1" parent="jhDI7tPvVPbU7EoArzrp-28">
          <mxGeometry width="30" height="30" as="geometry" />
        </mxCell>
        <mxCell id="jhDI7tPvVPbU7EoArzrp-30" value="优惠明细" style="shape=partialRectangle;connectable=0;top=0;left=0;bottom=0;right=0;align=left;spacingLeft=6;overflow=hidden;fillColor=#CCFFCC;" vertex="1" parent="jhDI7tPvVPbU7EoArzrp-28">
          <mxGeometry x="30" width="150" height="30" as="geometry" />
        </mxCell>
        <mxCell id="jhDI7tPvVPbU7EoArzrp-31" value="" style="shape=partialRectangle;collapsible=0;dropTarget=0;pointerEvents=0;top=0;left=0;bottom=0;right=0;points=[[0,0.5],[1,0.5]];portConstraint=eastwest;fillColor=#CCFFCC;" vertex="1" parent="jhDI7tPvVPbU7EoArzrp-18">
          <mxGeometry y="180" width="180" height="30" as="geometry" />
        </mxCell>
        <mxCell id="jhDI7tPvVPbU7EoArzrp-32" value="" style="shape=partialRectangle;connectable=0;top=0;left=0;bottom=0;right=0;editable=1;overflow=hidden;fillColor=#CCFFCC;" vertex="1" parent="jhDI7tPvVPbU7EoArzrp-31">
          <mxGeometry width="30" height="30" as="geometry" />
        </mxCell>
        <mxCell id="jhDI7tPvVPbU7EoArzrp-33" value="" style="shape=partialRectangle;connectable=0;top=0;left=0;bottom=0;right=0;align=left;spacingLeft=6;overflow=hidden;fillColor=#CCFFCC;" vertex="1" parent="jhDI7tPvVPbU7EoArzrp-31">
          <mxGeometry x="30" width="150" height="30" as="geometry" />
        </mxCell>
        <mxCell id="jhDI7tPvVPbU7EoArzrp-66" value="" style="endArrow=none;html=1;entryX=0;entryY=0.5;entryDx=0;entryDy=0;curved=1;" edge="1" parent="1" source="jhDI7tPvVPbU7EoArzrp-22" target="jhDI7tPvVPbU7EoArzrp-54">
          <mxGeometry relative="1" as="geometry">
            <mxPoint x="1900" y="830" as="sourcePoint" />
            <mxPoint x="2060" y="830" as="targetPoint" />
            <Array as="points">
              <mxPoint x="1980" y="850" />
            </Array>
          </mxGeometry>
        </mxCell>
        <mxCell id="jhDI7tPvVPbU7EoArzrp-50" value="商品" style="shape=table;startSize=40;container=1;collapsible=1;childLayout=tableLayout;fixedRows=1;rowLines=0;fontStyle=1;align=center;resizeLast=1;strokeColor=#6c8ebf;fillColor=#FFE599;" vertex="1" parent="1">
          <mxGeometry x="2050" y="530" width="200" height="190" as="geometry" />
        </mxCell>
        <mxCell id="jhDI7tPvVPbU7EoArzrp-51" value="" style="shape=partialRectangle;collapsible=0;dropTarget=0;pointerEvents=0;top=0;left=0;bottom=1;right=0;points=[[0,0.5],[1,0.5]];portConstraint=eastwest;fillColor=#CCFFCC;" vertex="1" parent="jhDI7tPvVPbU7EoArzrp-50">
          <mxGeometry y="40" width="200" height="30" as="geometry" />
        </mxCell>
        <mxCell id="jhDI7tPvVPbU7EoArzrp-52" value="" style="shape=partialRectangle;connectable=0;top=0;left=0;bottom=0;right=0;fontStyle=1;overflow=hidden;fillColor=#CCFFCC;" vertex="1" parent="jhDI7tPvVPbU7EoArzrp-51">
          <mxGeometry width="30" height="30" as="geometry" />
        </mxCell>
        <mxCell id="jhDI7tPvVPbU7EoArzrp-53" value="商品ID" style="shape=partialRectangle;connectable=0;top=0;left=0;bottom=0;right=0;align=left;spacingLeft=6;fontStyle=5;overflow=hidden;fillColor=#CCFFCC;" vertex="1" parent="jhDI7tPvVPbU7EoArzrp-51">
          <mxGeometry x="30" width="170" height="30" as="geometry" />
        </mxCell>
        <mxCell id="jhDI7tPvVPbU7EoArzrp-54" value="" style="shape=partialRectangle;collapsible=0;dropTarget=0;pointerEvents=0;top=0;left=0;bottom=0;right=0;points=[[0,0.5],[1,0.5]];portConstraint=eastwest;fillColor=#CCFFCC;" vertex="1" parent="jhDI7tPvVPbU7EoArzrp-50">
          <mxGeometry y="70" width="200" height="30" as="geometry" />
        </mxCell>
        <mxCell id="jhDI7tPvVPbU7EoArzrp-55" value="" style="shape=partialRectangle;connectable=0;top=0;left=0;bottom=0;right=0;editable=1;overflow=hidden;fillColor=#CCFFCC;" vertex="1" parent="jhDI7tPvVPbU7EoArzrp-54">
          <mxGeometry width="30" height="30" as="geometry" />
        </mxCell>
        <mxCell id="jhDI7tPvVPbU7EoArzrp-56" value="商品编号" style="shape=partialRectangle;connectable=0;top=0;left=0;bottom=0;right=0;align=left;spacingLeft=6;overflow=hidden;fillColor=#CCFFCC;" vertex="1" parent="jhDI7tPvVPbU7EoArzrp-54">
          <mxGeometry x="30" width="170" height="30" as="geometry" />
        </mxCell>
        <mxCell id="jhDI7tPvVPbU7EoArzrp-57" value="" style="shape=partialRectangle;collapsible=0;dropTarget=0;pointerEvents=0;fillColor=none;top=0;left=0;bottom=0;right=0;points=[[0,0.5],[1,0.5]];portConstraint=eastwest;strokeWidth=1;align=left;" vertex="1" parent="jhDI7tPvVPbU7EoArzrp-50">
          <mxGeometry y="100" width="200" height="30" as="geometry" />
        </mxCell>
        <mxCell id="jhDI7tPvVPbU7EoArzrp-58" value="" style="shape=partialRectangle;connectable=0;top=0;left=0;bottom=0;right=0;editable=1;overflow=hidden;fillColor=#CCFFCC;" vertex="1" parent="jhDI7tPvVPbU7EoArzrp-57">
          <mxGeometry width="30" height="30" as="geometry" />
        </mxCell>
        <mxCell id="jhDI7tPvVPbU7EoArzrp-59" value="单价" style="shape=partialRectangle;connectable=0;top=0;left=0;bottom=0;right=0;align=left;spacingLeft=6;overflow=hidden;strokeColor=#82b366;fillColor=#CCFFCC;" vertex="1" parent="jhDI7tPvVPbU7EoArzrp-57">
          <mxGeometry x="30" width="170" height="30" as="geometry" />
        </mxCell>
        <mxCell id="jhDI7tPvVPbU7EoArzrp-60" value="" style="shape=partialRectangle;collapsible=0;dropTarget=0;pointerEvents=0;top=0;left=0;bottom=0;right=0;points=[[0,0.5],[1,0.5]];portConstraint=eastwest;fillColor=#CCFFCC;" vertex="1" parent="jhDI7tPvVPbU7EoArzrp-50">
          <mxGeometry y="130" width="200" height="30" as="geometry" />
        </mxCell>
        <mxCell id="jhDI7tPvVPbU7EoArzrp-61" value="" style="shape=partialRectangle;connectable=0;top=0;left=0;bottom=0;right=0;editable=1;overflow=hidden;fillColor=#CCFFCC;" vertex="1" parent="jhDI7tPvVPbU7EoArzrp-60">
          <mxGeometry width="30" height="30" as="geometry" />
        </mxCell>
        <mxCell id="jhDI7tPvVPbU7EoArzrp-62" value="数量" style="shape=partialRectangle;connectable=0;top=0;left=0;bottom=0;right=0;align=left;spacingLeft=6;overflow=hidden;fillColor=#CCFFCC;" vertex="1" parent="jhDI7tPvVPbU7EoArzrp-60">
          <mxGeometry x="30" width="170" height="30" as="geometry" />
        </mxCell>
        <mxCell id="jhDI7tPvVPbU7EoArzrp-63" value="" style="shape=partialRectangle;collapsible=0;dropTarget=0;pointerEvents=0;top=0;left=0;bottom=0;right=0;points=[[0,0.5],[1,0.5]];portConstraint=eastwest;fillColor=#CCFFCC;" vertex="1" parent="jhDI7tPvVPbU7EoArzrp-50">
          <mxGeometry y="160" width="200" height="30" as="geometry" />
        </mxCell>
        <mxCell id="jhDI7tPvVPbU7EoArzrp-64" value="" style="shape=partialRectangle;connectable=0;top=0;left=0;bottom=0;right=0;editable=1;overflow=hidden;fillColor=#CCFFCC;" vertex="1" parent="jhDI7tPvVPbU7EoArzrp-63">
          <mxGeometry width="30" height="30" as="geometry" />
        </mxCell>
        <mxCell id="jhDI7tPvVPbU7EoArzrp-65" value="金额" style="shape=partialRectangle;connectable=0;top=0;left=0;bottom=0;right=0;align=left;spacingLeft=6;overflow=hidden;fillColor=#CCFFCC;" vertex="1" parent="jhDI7tPvVPbU7EoArzrp-63">
          <mxGeometry x="30" width="170" height="30" as="geometry" />
        </mxCell>
        <mxCell id="jhDI7tPvVPbU7EoArzrp-67" value="优惠明细" style="shape=table;startSize=50;container=1;collapsible=1;childLayout=tableLayout;fixedRows=1;rowLines=0;fontStyle=1;align=center;resizeLast=1;fillColor=#dae8fc;strokeColor=#6c8ebf;" vertex="1" parent="1">
          <mxGeometry x="2060" y="910" width="160" height="270" as="geometry" />
        </mxCell>
        <mxCell id="jhDI7tPvVPbU7EoArzrp-68" value="" style="shape=partialRectangle;collapsible=0;dropTarget=0;pointerEvents=0;top=0;left=0;bottom=1;right=0;points=[[0,0.5],[1,0.5]];portConstraint=eastwest;fillColor=#CCFFCC;" vertex="1" parent="jhDI7tPvVPbU7EoArzrp-67">
          <mxGeometry y="50" width="160" height="30" as="geometry" />
        </mxCell>
        <mxCell id="jhDI7tPvVPbU7EoArzrp-69" value="PK" style="shape=partialRectangle;connectable=0;top=0;left=0;bottom=0;right=0;fontStyle=1;overflow=hidden;fillColor=#CCFFCC;" vertex="1" parent="jhDI7tPvVPbU7EoArzrp-68">
          <mxGeometry width="30" height="30" as="geometry" />
        </mxCell>
        <mxCell id="jhDI7tPvVPbU7EoArzrp-70" value="优惠明细ID" style="shape=partialRectangle;connectable=0;top=0;left=0;bottom=0;right=0;align=left;spacingLeft=6;fontStyle=5;overflow=hidden;fillColor=#CCFFCC;" vertex="1" parent="jhDI7tPvVPbU7EoArzrp-68">
          <mxGeometry x="30" width="130" height="30" as="geometry" />
        </mxCell>
        <mxCell id="jhDI7tPvVPbU7EoArzrp-71" value="" style="shape=partialRectangle;collapsible=0;dropTarget=0;pointerEvents=0;fillColor=none;top=0;left=0;bottom=0;right=0;points=[[0,0.5],[1,0.5]];portConstraint=eastwest;strokeWidth=1;align=left;" vertex="1" parent="jhDI7tPvVPbU7EoArzrp-67">
          <mxGeometry y="80" width="160" height="30" as="geometry" />
        </mxCell>
        <mxCell id="jhDI7tPvVPbU7EoArzrp-72" value="" style="shape=partialRectangle;connectable=0;top=0;left=0;bottom=0;right=0;editable=1;overflow=hidden;fillColor=#CCFFCC;" vertex="1" parent="jhDI7tPvVPbU7EoArzrp-71">
          <mxGeometry width="30" height="30" as="geometry" />
        </mxCell>
        <mxCell id="jhDI7tPvVPbU7EoArzrp-73" value="订单ID" style="shape=partialRectangle;connectable=0;top=0;left=0;bottom=0;right=0;align=left;spacingLeft=6;overflow=hidden;strokeColor=#82b366;fillColor=#CCFFCC;" vertex="1" parent="jhDI7tPvVPbU7EoArzrp-71">
          <mxGeometry x="30" width="130" height="30" as="geometry" />
        </mxCell>
        <mxCell id="jhDI7tPvVPbU7EoArzrp-74" value="" style="shape=partialRectangle;collapsible=0;dropTarget=0;pointerEvents=0;top=0;left=0;bottom=0;right=0;points=[[0,0.5],[1,0.5]];portConstraint=eastwest;fillColor=#CCFFCC;" vertex="1" parent="jhDI7tPvVPbU7EoArzrp-67">
          <mxGeometry y="110" width="160" height="40" as="geometry" />
        </mxCell>
        <mxCell id="jhDI7tPvVPbU7EoArzrp-75" value="" style="shape=partialRectangle;connectable=0;top=0;left=0;bottom=0;right=0;editable=1;overflow=hidden;fillColor=#CCFFCC;" vertex="1" parent="jhDI7tPvVPbU7EoArzrp-74">
          <mxGeometry width="30" height="40" as="geometry" />
        </mxCell>
        <mxCell id="jhDI7tPvVPbU7EoArzrp-76" value="订单明细ID" style="shape=partialRectangle;connectable=0;top=0;left=0;bottom=0;right=0;align=left;spacingLeft=6;overflow=hidden;fillColor=#CCFFCC;" vertex="1" parent="jhDI7tPvVPbU7EoArzrp-74">
          <mxGeometry x="30" width="130" height="40" as="geometry" />
        </mxCell>
        <mxCell id="jhDI7tPvVPbU7EoArzrp-77" value="" style="shape=partialRectangle;collapsible=0;dropTarget=0;pointerEvents=0;top=0;left=0;bottom=0;right=0;points=[[0,0.5],[1,0.5]];portConstraint=eastwest;fillColor=#CCFFCC;" vertex="1" parent="jhDI7tPvVPbU7EoArzrp-67">
          <mxGeometry y="150" width="160" height="30" as="geometry" />
        </mxCell>
        <mxCell id="jhDI7tPvVPbU7EoArzrp-78" value="" style="shape=partialRectangle;connectable=0;top=0;left=0;bottom=0;right=0;editable=1;overflow=hidden;fillColor=#CCFFCC;" vertex="1" parent="jhDI7tPvVPbU7EoArzrp-77">
          <mxGeometry width="30" height="30" as="geometry" />
        </mxCell>
        <mxCell id="jhDI7tPvVPbU7EoArzrp-79" value="优惠类型CODE" style="shape=partialRectangle;connectable=0;top=0;left=0;bottom=0;right=0;align=left;spacingLeft=6;overflow=hidden;fillColor=#CCFFCC;" vertex="1" parent="jhDI7tPvVPbU7EoArzrp-77">
          <mxGeometry x="30" width="130" height="30" as="geometry" />
        </mxCell>
        <mxCell id="jhDI7tPvVPbU7EoArzrp-80" value="" style="shape=partialRectangle;collapsible=0;dropTarget=0;pointerEvents=0;top=0;left=0;bottom=0;right=0;points=[[0,0.5],[1,0.5]];portConstraint=eastwest;fillColor=#CCFFCC;" vertex="1" parent="jhDI7tPvVPbU7EoArzrp-67">
          <mxGeometry y="180" width="160" height="30" as="geometry" />
        </mxCell>
        <mxCell id="jhDI7tPvVPbU7EoArzrp-81" value="" style="shape=partialRectangle;connectable=0;top=0;left=0;bottom=0;right=0;editable=1;overflow=hidden;fillColor=#CCFFCC;" vertex="1" parent="jhDI7tPvVPbU7EoArzrp-80">
          <mxGeometry width="30" height="30" as="geometry" />
        </mxCell>
        <mxCell id="jhDI7tPvVPbU7EoArzrp-82" value="优惠类型名称" style="shape=partialRectangle;connectable=0;top=0;left=0;bottom=0;right=0;align=left;spacingLeft=6;overflow=hidden;fillColor=#CCFFCC;" vertex="1" parent="jhDI7tPvVPbU7EoArzrp-80">
          <mxGeometry x="30" width="130" height="30" as="geometry" />
        </mxCell>
        <mxCell id="jhDI7tPvVPbU7EoArzrp-83" value="" style="shape=partialRectangle;collapsible=0;dropTarget=0;pointerEvents=0;top=0;left=0;bottom=0;right=0;points=[[0,0.5],[1,0.5]];portConstraint=eastwest;strokeColor=#82b366;fillColor=#CCFFCC;" vertex="1" parent="jhDI7tPvVPbU7EoArzrp-67">
          <mxGeometry y="210" width="160" height="30" as="geometry" />
        </mxCell>
        <mxCell id="jhDI7tPvVPbU7EoArzrp-84" value="" style="shape=partialRectangle;connectable=0;top=0;left=0;bottom=0;right=0;editable=1;overflow=hidden;strokeColor=#82b366;fillColor=#CCFFCC;" vertex="1" parent="jhDI7tPvVPbU7EoArzrp-83">
          <mxGeometry width="30" height="30" as="geometry" />
        </mxCell>
        <mxCell id="jhDI7tPvVPbU7EoArzrp-85" value="优惠金额" style="shape=partialRectangle;connectable=0;top=0;left=0;bottom=0;right=0;align=left;spacingLeft=6;overflow=hidden;strokeColor=#82b366;fillColor=#CCFFCC;" vertex="1" parent="jhDI7tPvVPbU7EoArzrp-83">
          <mxGeometry x="30" width="130" height="30" as="geometry" />
        </mxCell>
        <mxCell id="jhDI7tPvVPbU7EoArzrp-86" value="" style="shape=partialRectangle;collapsible=0;dropTarget=0;pointerEvents=0;top=0;left=0;bottom=0;right=0;points=[[0,0.5],[1,0.5]];portConstraint=eastwest;strokeColor=#82b366;fillColor=#CCFFCC;" vertex="1" parent="jhDI7tPvVPbU7EoArzrp-67">
          <mxGeometry y="240" width="160" height="30" as="geometry" />
        </mxCell>
        <mxCell id="jhDI7tPvVPbU7EoArzrp-87" value="" style="shape=partialRectangle;connectable=0;top=0;left=0;bottom=0;right=0;editable=1;overflow=hidden;strokeColor=#82b366;fillColor=#CCFFCC;" vertex="1" parent="jhDI7tPvVPbU7EoArzrp-86">
          <mxGeometry width="30" height="30" as="geometry" />
        </mxCell>
        <mxCell id="jhDI7tPvVPbU7EoArzrp-88" value="营销工具ID" style="shape=partialRectangle;connectable=0;top=0;left=0;bottom=0;right=0;align=left;spacingLeft=6;overflow=hidden;strokeColor=#82b366;fillColor=#CCFFCC;" vertex="1" parent="jhDI7tPvVPbU7EoArzrp-86">
          <mxGeometry x="30" width="130" height="30" as="geometry" />
        </mxCell>
        <mxCell id="jhDI7tPvVPbU7EoArzrp-89" value="" style="endArrow=none;html=1;entryX=0;entryY=0.5;entryDx=0;entryDy=0;curved=1;" edge="1" parent="1" target="jhDI7tPvVPbU7EoArzrp-77">
          <mxGeometry relative="1" as="geometry">
            <mxPoint x="1880" y="900" as="sourcePoint" />
            <mxPoint x="2040" y="900" as="targetPoint" />
            <Array as="points">
              <mxPoint x="1990" y="980" />
            </Array>
          </mxGeometry>
        </mxCell>
        <mxCell id="jhDI7tPvVPbU7EoArzrp-93" value="1" style="edgeLabel;html=1;align=center;verticalAlign=middle;resizable=0;points=[];" vertex="1" connectable="0" parent="jhDI7tPvVPbU7EoArzrp-89">
          <mxGeometry x="0.0709" y="-108" relative="1" as="geometry">
            <mxPoint x="-2" y="-126" as="offset" />
          </mxGeometry>
        </mxCell>
        <mxCell id="jhDI7tPvVPbU7EoArzrp-94" value="n" style="edgeLabel;html=1;align=center;verticalAlign=middle;resizable=0;points=[];" vertex="1" connectable="0" parent="jhDI7tPvVPbU7EoArzrp-89">
          <mxGeometry x="0.6741" y="-1" relative="1" as="geometry">
            <mxPoint y="-1" as="offset" />
          </mxGeometry>
        </mxCell>
        <mxCell id="jhDI7tPvVPbU7EoArzrp-112" value="" style="endArrow=none;html=1;curved=1;entryX=0;entryY=0.5;entryDx=0;entryDy=0;" edge="1" parent="1" target="jhDI7tPvVPbU7EoArzrp-113">
          <mxGeometry relative="1" as="geometry">
            <mxPoint x="1100" y="865" as="sourcePoint" />
            <mxPoint x="1200" y="890" as="targetPoint" />
          </mxGeometry>
        </mxCell>
        <mxCell id="jhDI7tPvVPbU7EoArzrp-96" value="用户" style="shape=table;startSize=40;container=1;collapsible=1;childLayout=tableLayout;fixedRows=1;rowLines=0;fontStyle=1;align=center;resizeLast=1;strokeColor=#6c8ebf;fillColor=#FFE599;" vertex="1" parent="1">
          <mxGeometry x="900" y="800" width="200" height="100" as="geometry" />
        </mxCell>
        <mxCell id="jhDI7tPvVPbU7EoArzrp-97" value="" style="shape=partialRectangle;collapsible=0;dropTarget=0;pointerEvents=0;top=0;left=0;bottom=1;right=0;points=[[0,0.5],[1,0.5]];portConstraint=eastwest;fillColor=#CCFFCC;" vertex="1" parent="jhDI7tPvVPbU7EoArzrp-96">
          <mxGeometry y="40" width="200" height="30" as="geometry" />
        </mxCell>
        <mxCell id="jhDI7tPvVPbU7EoArzrp-98" value="" style="shape=partialRectangle;connectable=0;top=0;left=0;bottom=0;right=0;fontStyle=1;overflow=hidden;fillColor=#CCFFCC;" vertex="1" parent="jhDI7tPvVPbU7EoArzrp-97">
          <mxGeometry width="30" height="30" as="geometry" />
        </mxCell>
        <mxCell id="jhDI7tPvVPbU7EoArzrp-99" value="用户ID" style="shape=partialRectangle;connectable=0;top=0;left=0;bottom=0;right=0;align=left;spacingLeft=6;fontStyle=5;overflow=hidden;fillColor=#CCFFCC;" vertex="1" parent="jhDI7tPvVPbU7EoArzrp-97">
          <mxGeometry x="30" width="170" height="30" as="geometry" />
        </mxCell>
        <mxCell id="jhDI7tPvVPbU7EoArzrp-100" value="" style="shape=partialRectangle;collapsible=0;dropTarget=0;pointerEvents=0;top=0;left=0;bottom=0;right=0;points=[[0,0.5],[1,0.5]];portConstraint=eastwest;fillColor=#CCFFCC;" vertex="1" parent="jhDI7tPvVPbU7EoArzrp-96">
          <mxGeometry y="70" width="200" height="30" as="geometry" />
        </mxCell>
        <mxCell id="jhDI7tPvVPbU7EoArzrp-101" value="" style="shape=partialRectangle;connectable=0;top=0;left=0;bottom=0;right=0;editable=1;overflow=hidden;fillColor=#CCFFCC;" vertex="1" parent="jhDI7tPvVPbU7EoArzrp-100">
          <mxGeometry width="30" height="30" as="geometry" />
        </mxCell>
        <mxCell id="jhDI7tPvVPbU7EoArzrp-102" value="用户名称" style="shape=partialRectangle;connectable=0;top=0;left=0;bottom=0;right=0;align=left;spacingLeft=6;overflow=hidden;fillColor=#CCFFCC;" vertex="1" parent="jhDI7tPvVPbU7EoArzrp-100">
          <mxGeometry x="30" width="170" height="30" as="geometry" />
        </mxCell>
        <mxCell id="jhDI7tPvVPbU7EoArzrp-118" value="" style="endArrow=none;html=1;rounded=0;" edge="1" parent="1" target="jhDI7tPvVPbU7EoArzrp-22">
          <mxGeometry relative="1" as="geometry">
            <mxPoint x="1510" y="860" as="sourcePoint" />
            <mxPoint x="1670" y="860" as="targetPoint" />
          </mxGeometry>
        </mxCell>
        <mxCell id="jhDI7tPvVPbU7EoArzrp-119" value="1" style="edgeLabel;html=1;align=center;verticalAlign=middle;resizable=0;points=[];" vertex="1" connectable="0" parent="jhDI7tPvVPbU7EoArzrp-118">
          <mxGeometry x="-0.8105" y="-3" relative="1" as="geometry">
            <mxPoint as="offset" />
          </mxGeometry>
        </mxCell>
        <mxCell id="jhDI7tPvVPbU7EoArzrp-120" value="n" style="edgeLabel;html=1;align=center;verticalAlign=middle;resizable=0;points=[];" vertex="1" connectable="0" parent="jhDI7tPvVPbU7EoArzrp-118">
          <mxGeometry x="0.6947" y="-4" relative="1" as="geometry">
            <mxPoint as="offset" />
          </mxGeometry>
        </mxCell>
        <mxCell id="jhDI7tPvVPbU7EoArzrp-121" value="物流信息" style="shape=table;startSize=40;container=1;collapsible=1;childLayout=tableLayout;fixedRows=1;rowLines=0;fontStyle=1;align=center;resizeLast=1;fillColor=#dae8fc;strokeColor=#6c8ebf;" vertex="1" parent="1">
          <mxGeometry x="1290" y="1140" width="200" height="230" as="geometry" />
        </mxCell>
        <mxCell id="jhDI7tPvVPbU7EoArzrp-122" value="" style="shape=partialRectangle;collapsible=0;dropTarget=0;pointerEvents=0;top=0;left=0;bottom=1;right=0;points=[[0,0.5],[1,0.5]];portConstraint=eastwest;fillColor=#CCFFCC;" vertex="1" parent="jhDI7tPvVPbU7EoArzrp-121">
          <mxGeometry y="40" width="200" height="30" as="geometry" />
        </mxCell>
        <mxCell id="jhDI7tPvVPbU7EoArzrp-123" value="PK" style="shape=partialRectangle;connectable=0;top=0;left=0;bottom=0;right=0;fontStyle=1;overflow=hidden;fillColor=#CCFFCC;" vertex="1" parent="jhDI7tPvVPbU7EoArzrp-122">
          <mxGeometry width="30" height="30" as="geometry" />
        </mxCell>
        <mxCell id="jhDI7tPvVPbU7EoArzrp-124" value="物流信息ID" style="shape=partialRectangle;connectable=0;top=0;left=0;bottom=0;right=0;align=left;spacingLeft=6;fontStyle=5;overflow=hidden;fillColor=#CCFFCC;" vertex="1" parent="jhDI7tPvVPbU7EoArzrp-122">
          <mxGeometry x="30" width="170" height="30" as="geometry" />
        </mxCell>
        <mxCell id="jhDI7tPvVPbU7EoArzrp-125" value="" style="shape=partialRectangle;collapsible=0;dropTarget=0;pointerEvents=0;top=0;left=0;bottom=0;right=0;points=[[0,0.5],[1,0.5]];portConstraint=eastwest;fillColor=#CCFFCC;" vertex="1" parent="jhDI7tPvVPbU7EoArzrp-121">
          <mxGeometry y="70" width="200" height="40" as="geometry" />
        </mxCell>
        <mxCell id="jhDI7tPvVPbU7EoArzrp-126" value="" style="shape=partialRectangle;connectable=0;top=0;left=0;bottom=0;right=0;editable=1;overflow=hidden;fillColor=#CCFFCC;" vertex="1" parent="jhDI7tPvVPbU7EoArzrp-125">
          <mxGeometry width="30" height="40" as="geometry" />
        </mxCell>
        <mxCell id="jhDI7tPvVPbU7EoArzrp-127" value="订单ID" style="shape=partialRectangle;connectable=0;top=0;left=0;bottom=0;right=0;align=left;spacingLeft=6;overflow=hidden;fillColor=#CCFFCC;" vertex="1" parent="jhDI7tPvVPbU7EoArzrp-125">
          <mxGeometry x="30" width="170" height="40" as="geometry" />
        </mxCell>
        <mxCell id="jhDI7tPvVPbU7EoArzrp-128" value="" style="shape=partialRectangle;collapsible=0;dropTarget=0;pointerEvents=0;top=0;left=0;bottom=0;right=0;points=[[0,0.5],[1,0.5]];portConstraint=eastwest;fillColor=#CCFFCC;" vertex="1" parent="jhDI7tPvVPbU7EoArzrp-121">
          <mxGeometry y="110" width="200" height="30" as="geometry" />
        </mxCell>
        <mxCell id="jhDI7tPvVPbU7EoArzrp-129" value="" style="shape=partialRectangle;connectable=0;top=0;left=0;bottom=0;right=0;editable=1;overflow=hidden;fillColor=#CCFFCC;" vertex="1" parent="jhDI7tPvVPbU7EoArzrp-128">
          <mxGeometry width="30" height="30" as="geometry" />
        </mxCell>
        <mxCell id="jhDI7tPvVPbU7EoArzrp-130" value="收件人" style="shape=partialRectangle;connectable=0;top=0;left=0;bottom=0;right=0;align=left;spacingLeft=6;overflow=hidden;fillColor=#CCFFCC;" vertex="1" parent="jhDI7tPvVPbU7EoArzrp-128">
          <mxGeometry x="30" width="170" height="30" as="geometry" />
        </mxCell>
        <mxCell id="jhDI7tPvVPbU7EoArzrp-131" value="" style="shape=partialRectangle;collapsible=0;dropTarget=0;pointerEvents=0;fillColor=none;top=0;left=0;bottom=0;right=0;points=[[0,0.5],[1,0.5]];portConstraint=eastwest;strokeWidth=1;align=left;" vertex="1" parent="jhDI7tPvVPbU7EoArzrp-121">
          <mxGeometry y="140" width="200" height="30" as="geometry" />
        </mxCell>
        <mxCell id="jhDI7tPvVPbU7EoArzrp-132" value="" style="shape=partialRectangle;connectable=0;top=0;left=0;bottom=0;right=0;editable=1;overflow=hidden;fillColor=#CCFFCC;" vertex="1" parent="jhDI7tPvVPbU7EoArzrp-131">
          <mxGeometry width="30" height="30" as="geometry" />
        </mxCell>
        <mxCell id="jhDI7tPvVPbU7EoArzrp-133" value="收件人电话号码" style="shape=partialRectangle;connectable=0;top=0;left=0;bottom=0;right=0;align=left;spacingLeft=6;overflow=hidden;strokeColor=#82b366;fillColor=#CCFFCC;" vertex="1" parent="jhDI7tPvVPbU7EoArzrp-131">
          <mxGeometry x="30" width="170" height="30" as="geometry" />
        </mxCell>
        <mxCell id="jhDI7tPvVPbU7EoArzrp-134" value="" style="shape=partialRectangle;collapsible=0;dropTarget=0;pointerEvents=0;top=0;left=0;bottom=0;right=0;points=[[0,0.5],[1,0.5]];portConstraint=eastwest;fillColor=#CCFFCC;" vertex="1" parent="jhDI7tPvVPbU7EoArzrp-121">
          <mxGeometry y="170" width="200" height="30" as="geometry" />
        </mxCell>
        <mxCell id="jhDI7tPvVPbU7EoArzrp-135" value="" style="shape=partialRectangle;connectable=0;top=0;left=0;bottom=0;right=0;editable=1;overflow=hidden;fillColor=#CCFFCC;" vertex="1" parent="jhDI7tPvVPbU7EoArzrp-134">
          <mxGeometry width="30" height="30" as="geometry" />
        </mxCell>
        <mxCell id="jhDI7tPvVPbU7EoArzrp-136" value="付款时间" style="shape=partialRectangle;connectable=0;top=0;left=0;bottom=0;right=0;align=left;spacingLeft=6;overflow=hidden;fillColor=#CCFFCC;" vertex="1" parent="jhDI7tPvVPbU7EoArzrp-134">
          <mxGeometry x="30" width="170" height="30" as="geometry" />
        </mxCell>
        <mxCell id="jhDI7tPvVPbU7EoArzrp-137" value="" style="shape=partialRectangle;collapsible=0;dropTarget=0;pointerEvents=0;top=0;left=0;bottom=0;right=0;points=[[0,0.5],[1,0.5]];portConstraint=eastwest;fillColor=#CCFFCC;" vertex="1" parent="jhDI7tPvVPbU7EoArzrp-121">
          <mxGeometry y="200" width="200" height="30" as="geometry" />
        </mxCell>
        <mxCell id="jhDI7tPvVPbU7EoArzrp-138" value="" style="shape=partialRectangle;connectable=0;top=0;left=0;bottom=0;right=0;editable=1;overflow=hidden;fillColor=#CCFFCC;" vertex="1" parent="jhDI7tPvVPbU7EoArzrp-137">
          <mxGeometry width="30" height="30" as="geometry" />
        </mxCell>
        <mxCell id="jhDI7tPvVPbU7EoArzrp-139" value="创建时间" style="shape=partialRectangle;connectable=0;top=0;left=0;bottom=0;right=0;align=left;spacingLeft=6;overflow=hidden;fillColor=#CCFFCC;" vertex="1" parent="jhDI7tPvVPbU7EoArzrp-137">
          <mxGeometry x="30" width="170" height="30" as="geometry" />
        </mxCell>
        <mxCell id="jhDI7tPvVPbU7EoArzrp-142" value="" style="endArrow=none;html=1;rounded=0;entryX=0.54;entryY=0;entryDx=0;entryDy=0;entryPerimeter=0;exitX=0.435;exitY=1.067;exitDx=0;exitDy=0;exitPerimeter=0;" edge="1" parent="1" source="jhDI7tPvVPbU7EoArzrp-15" target="jhDI7tPvVPbU7EoArzrp-121">
          <mxGeometry relative="1" as="geometry">
            <mxPoint x="1130" y="1200" as="sourcePoint" />
            <mxPoint x="1290" y="1200" as="targetPoint" />
          </mxGeometry>
        </mxCell>
        <mxCell id="jhDI7tPvVPbU7EoArzrp-143" value="地址" style="shape=table;startSize=40;container=1;collapsible=1;childLayout=tableLayout;fixedRows=1;rowLines=0;fontStyle=1;align=center;resizeLast=1;strokeColor=#6c8ebf;fillColor=#FFE599;" vertex="1" parent="1">
          <mxGeometry x="900" y="1140" width="200" height="310" as="geometry" />
        </mxCell>
        <mxCell id="jhDI7tPvVPbU7EoArzrp-144" value="" style="shape=partialRectangle;collapsible=0;dropTarget=0;pointerEvents=0;top=0;left=0;bottom=1;right=0;points=[[0,0.5],[1,0.5]];portConstraint=eastwest;fillColor=#CCFFCC;" vertex="1" parent="jhDI7tPvVPbU7EoArzrp-143">
          <mxGeometry y="40" width="200" height="30" as="geometry" />
        </mxCell>
        <mxCell id="jhDI7tPvVPbU7EoArzrp-145" value="" style="shape=partialRectangle;connectable=0;top=0;left=0;bottom=0;right=0;fontStyle=1;overflow=hidden;fillColor=#CCFFCC;" vertex="1" parent="jhDI7tPvVPbU7EoArzrp-144">
          <mxGeometry width="30" height="30" as="geometry" />
        </mxCell>
        <mxCell id="jhDI7tPvVPbU7EoArzrp-146" value="国家CODE" style="shape=partialRectangle;connectable=0;top=0;left=0;bottom=0;right=0;align=left;spacingLeft=6;fontStyle=5;overflow=hidden;fillColor=#CCFFCC;" vertex="1" parent="jhDI7tPvVPbU7EoArzrp-144">
          <mxGeometry x="30" width="170" height="30" as="geometry" />
        </mxCell>
        <mxCell id="jhDI7tPvVPbU7EoArzrp-147" value="" style="shape=partialRectangle;collapsible=0;dropTarget=0;pointerEvents=0;top=0;left=0;bottom=0;right=0;points=[[0,0.5],[1,0.5]];portConstraint=eastwest;fillColor=#CCFFCC;" vertex="1" parent="jhDI7tPvVPbU7EoArzrp-143">
          <mxGeometry y="70" width="200" height="30" as="geometry" />
        </mxCell>
        <mxCell id="jhDI7tPvVPbU7EoArzrp-148" value="" style="shape=partialRectangle;connectable=0;top=0;left=0;bottom=0;right=0;editable=1;overflow=hidden;fillColor=#CCFFCC;" vertex="1" parent="jhDI7tPvVPbU7EoArzrp-147">
          <mxGeometry width="30" height="30" as="geometry" />
        </mxCell>
        <mxCell id="jhDI7tPvVPbU7EoArzrp-149" value="国家名称" style="shape=partialRectangle;connectable=0;top=0;left=0;bottom=0;right=0;align=left;spacingLeft=6;overflow=hidden;fillColor=#CCFFCC;" vertex="1" parent="jhDI7tPvVPbU7EoArzrp-147">
          <mxGeometry x="30" width="170" height="30" as="geometry" />
        </mxCell>
        <mxCell id="jhDI7tPvVPbU7EoArzrp-150" value="" style="shape=partialRectangle;collapsible=0;dropTarget=0;pointerEvents=0;top=0;left=0;bottom=0;right=0;points=[[0,0.5],[1,0.5]];portConstraint=eastwest;fillColor=#CCFFCC;" vertex="1" parent="jhDI7tPvVPbU7EoArzrp-143">
          <mxGeometry y="100" width="200" height="30" as="geometry" />
        </mxCell>
        <mxCell id="jhDI7tPvVPbU7EoArzrp-151" value="" style="shape=partialRectangle;connectable=0;top=0;left=0;bottom=0;right=0;editable=1;overflow=hidden;fillColor=#CCFFCC;" vertex="1" parent="jhDI7tPvVPbU7EoArzrp-150">
          <mxGeometry width="30" height="30" as="geometry" />
        </mxCell>
        <mxCell id="jhDI7tPvVPbU7EoArzrp-152" value="省CODE" style="shape=partialRectangle;connectable=0;top=0;left=0;bottom=0;right=0;align=left;spacingLeft=6;overflow=hidden;fillColor=#CCFFCC;" vertex="1" parent="jhDI7tPvVPbU7EoArzrp-150">
          <mxGeometry x="30" width="170" height="30" as="geometry" />
        </mxCell>
        <mxCell id="jhDI7tPvVPbU7EoArzrp-160" value="" style="shape=partialRectangle;collapsible=0;dropTarget=0;pointerEvents=0;top=0;left=0;bottom=0;right=0;points=[[0,0.5],[1,0.5]];portConstraint=eastwest;fillColor=#CCFFCC;" vertex="1" parent="jhDI7tPvVPbU7EoArzrp-143">
          <mxGeometry y="130" width="200" height="30" as="geometry" />
        </mxCell>
        <mxCell id="jhDI7tPvVPbU7EoArzrp-161" value="" style="shape=partialRectangle;connectable=0;top=0;left=0;bottom=0;right=0;editable=1;overflow=hidden;fillColor=#CCFFCC;" vertex="1" parent="jhDI7tPvVPbU7EoArzrp-160">
          <mxGeometry width="30" height="30" as="geometry" />
        </mxCell>
        <mxCell id="jhDI7tPvVPbU7EoArzrp-162" value="省名称" style="shape=partialRectangle;connectable=0;top=0;left=0;bottom=0;right=0;align=left;spacingLeft=6;overflow=hidden;fillColor=#CCFFCC;" vertex="1" parent="jhDI7tPvVPbU7EoArzrp-160">
          <mxGeometry x="30" width="170" height="30" as="geometry" />
        </mxCell>
        <mxCell id="jhDI7tPvVPbU7EoArzrp-163" value="" style="shape=partialRectangle;collapsible=0;dropTarget=0;pointerEvents=0;top=0;left=0;bottom=0;right=0;points=[[0,0.5],[1,0.5]];portConstraint=eastwest;fillColor=#CCFFCC;" vertex="1" parent="jhDI7tPvVPbU7EoArzrp-143">
          <mxGeometry y="160" width="200" height="30" as="geometry" />
        </mxCell>
        <mxCell id="jhDI7tPvVPbU7EoArzrp-164" value="" style="shape=partialRectangle;connectable=0;top=0;left=0;bottom=0;right=0;editable=1;overflow=hidden;fillColor=#CCFFCC;" vertex="1" parent="jhDI7tPvVPbU7EoArzrp-163">
          <mxGeometry width="30" height="30" as="geometry" />
        </mxCell>
        <mxCell id="jhDI7tPvVPbU7EoArzrp-165" value="市CODE" style="shape=partialRectangle;connectable=0;top=0;left=0;bottom=0;right=0;align=left;spacingLeft=6;overflow=hidden;fillColor=#CCFFCC;" vertex="1" parent="jhDI7tPvVPbU7EoArzrp-163">
          <mxGeometry x="30" width="170" height="30" as="geometry" />
        </mxCell>
        <mxCell id="jhDI7tPvVPbU7EoArzrp-166" value="" style="shape=partialRectangle;collapsible=0;dropTarget=0;pointerEvents=0;top=0;left=0;bottom=0;right=0;points=[[0,0.5],[1,0.5]];portConstraint=eastwest;fillColor=#CCFFCC;" vertex="1" parent="jhDI7tPvVPbU7EoArzrp-143">
          <mxGeometry y="190" width="200" height="30" as="geometry" />
        </mxCell>
        <mxCell id="jhDI7tPvVPbU7EoArzrp-167" value="" style="shape=partialRectangle;connectable=0;top=0;left=0;bottom=0;right=0;editable=1;overflow=hidden;fillColor=#CCFFCC;" vertex="1" parent="jhDI7tPvVPbU7EoArzrp-166">
          <mxGeometry width="30" height="30" as="geometry" />
        </mxCell>
        <mxCell id="jhDI7tPvVPbU7EoArzrp-168" value="市名称" style="shape=partialRectangle;connectable=0;top=0;left=0;bottom=0;right=0;align=left;spacingLeft=6;overflow=hidden;fillColor=#CCFFCC;" vertex="1" parent="jhDI7tPvVPbU7EoArzrp-166">
          <mxGeometry x="30" width="170" height="30" as="geometry" />
        </mxCell>
        <mxCell id="jhDI7tPvVPbU7EoArzrp-169" value="" style="shape=partialRectangle;collapsible=0;dropTarget=0;pointerEvents=0;top=0;left=0;bottom=0;right=0;points=[[0,0.5],[1,0.5]];portConstraint=eastwest;fillColor=#CCFFCC;" vertex="1" parent="jhDI7tPvVPbU7EoArzrp-143">
          <mxGeometry y="220" width="200" height="30" as="geometry" />
        </mxCell>
        <mxCell id="jhDI7tPvVPbU7EoArzrp-170" value="" style="shape=partialRectangle;connectable=0;top=0;left=0;bottom=0;right=0;editable=1;overflow=hidden;fillColor=#CCFFCC;" vertex="1" parent="jhDI7tPvVPbU7EoArzrp-169">
          <mxGeometry width="30" height="30" as="geometry" />
        </mxCell>
        <mxCell id="jhDI7tPvVPbU7EoArzrp-171" value="区CODE" style="shape=partialRectangle;connectable=0;top=0;left=0;bottom=0;right=0;align=left;spacingLeft=6;overflow=hidden;fillColor=#CCFFCC;" vertex="1" parent="jhDI7tPvVPbU7EoArzrp-169">
          <mxGeometry x="30" width="170" height="30" as="geometry" />
        </mxCell>
        <mxCell id="jhDI7tPvVPbU7EoArzrp-172" value="" style="shape=partialRectangle;collapsible=0;dropTarget=0;pointerEvents=0;top=0;left=0;bottom=0;right=0;points=[[0,0.5],[1,0.5]];portConstraint=eastwest;fillColor=#CCFFCC;" vertex="1" parent="jhDI7tPvVPbU7EoArzrp-143">
          <mxGeometry y="250" width="200" height="30" as="geometry" />
        </mxCell>
        <mxCell id="jhDI7tPvVPbU7EoArzrp-173" value="" style="shape=partialRectangle;connectable=0;top=0;left=0;bottom=0;right=0;editable=1;overflow=hidden;fillColor=#CCFFCC;" vertex="1" parent="jhDI7tPvVPbU7EoArzrp-172">
          <mxGeometry width="30" height="30" as="geometry" />
        </mxCell>
        <mxCell id="jhDI7tPvVPbU7EoArzrp-174" value="区名称" style="shape=partialRectangle;connectable=0;top=0;left=0;bottom=0;right=0;align=left;spacingLeft=6;overflow=hidden;fillColor=#CCFFCC;" vertex="1" parent="jhDI7tPvVPbU7EoArzrp-172">
          <mxGeometry x="30" width="170" height="30" as="geometry" />
        </mxCell>
        <mxCell id="jhDI7tPvVPbU7EoArzrp-175" value="" style="shape=partialRectangle;collapsible=0;dropTarget=0;pointerEvents=0;top=0;left=0;bottom=0;right=0;points=[[0,0.5],[1,0.5]];portConstraint=eastwest;fillColor=#CCFFCC;" vertex="1" parent="jhDI7tPvVPbU7EoArzrp-143">
          <mxGeometry y="280" width="200" height="30" as="geometry" />
        </mxCell>
        <mxCell id="jhDI7tPvVPbU7EoArzrp-176" value="" style="shape=partialRectangle;connectable=0;top=0;left=0;bottom=0;right=0;editable=1;overflow=hidden;fillColor=#CCFFCC;" vertex="1" parent="jhDI7tPvVPbU7EoArzrp-175">
          <mxGeometry width="30" height="30" as="geometry" />
        </mxCell>
        <mxCell id="jhDI7tPvVPbU7EoArzrp-177" value="详细地址" style="shape=partialRectangle;connectable=0;top=0;left=0;bottom=0;right=0;align=left;spacingLeft=6;overflow=hidden;fillColor=#CCFFCC;" vertex="1" parent="jhDI7tPvVPbU7EoArzrp-175">
          <mxGeometry x="30" width="170" height="30" as="geometry" />
        </mxCell>
      </root>
    </mxGraphModel>
  </diagram>
</mxfile>
